<?xml version="1.0" encoding="utf-8"?>
<!-- Generator: Adobe Illustrator 19.0.0, SVG Export Plug-In . SVG Version: 6.00 Build 0)  -->
<svg version="1.1" id="Layer_1" xmlns="http://www.w3.org/2000/svg" xmlns:xlink="http://www.w3.org/1999/xlink" x="0px" y="0px"
	 viewBox="0 0 244.9 244.9" style="enable-background:new 0 0 244.9 244.9;" xml:space="preserve">
<style type="text/css">
	.st0{display:none;fill:url(#XMLID_14_);stroke:#000000;stroke-width:4;stroke-miterlimit:10;}
	.st1{display:none;fill:url(#XMLID_15_);}
	.st2{display:none;fill:url(#XMLID_16_);}
	.st3{display:none;}
	.st4{display:inline;fill:url(#XMLID_18_);stroke:#000000;stroke-width:4;stroke-miterlimit:10;}
	.st5{display:inline;fill:url(#XMLID_19_);}
	.st6{display:inline;fill:url(#XMLID_20_);}
	.st7{display:inline;fill:url(#XMLID_21_);stroke:#000000;stroke-width:4;stroke-miterlimit:10;}
	.st8{display:inline;fill:url(#XMLID_22_);}
	.st9{display:inline;fill:url(#XMLID_24_);}
	.st10{display:none;fill:url(#XMLID_25_);stroke:#000000;stroke-width:4;stroke-miterlimit:10;}
	.st11{display:none;fill:url(#XMLID_26_);}
	.st12{display:none;fill:url(#XMLID_27_);}
	.st13{display:none;fill:url(#XMLID_28_);stroke:#000000;stroke-width:4;stroke-miterlimit:10;}
	.st14{display:none;fill:url(#XMLID_34_);}
	.st15{display:none;fill:url(#XMLID_35_);}
	.st16{display:inline;fill:url(#XMLID_36_);stroke:#000000;stroke-width:4;stroke-miterlimit:10;}
	.st17{display:inline;fill:url(#XMLID_37_);}
	.st18{display:inline;fill:url(#XMLID_38_);}
	.st19{fill:url(#XMLID_39_);stroke:#000000;stroke-width:4;stroke-miterlimit:10;}
	.st20{fill:url(#XMLID_40_);}
	.st21{fill:url(#XMLID_41_);}
	.st22{display:none;fill:url(#XMLID_42_);stroke:#000000;stroke-width:4;stroke-miterlimit:10;}
	.st23{display:none;fill:url(#XMLID_43_);}
	.st24{display:none;fill:url(#XMLID_44_);}
	.st25{display:none;fill:url(#XMLID_45_);stroke:#000000;stroke-width:4;stroke-miterlimit:10;}
	.st26{display:none;fill:url(#XMLID_46_);}
	.st27{display:none;fill:url(#XMLID_47_);}
	.st28{display:inline;fill:url(#XMLID_48_);stroke:#000000;stroke-width:4;stroke-miterlimit:10;}
	.st29{display:inline;fill:url(#XMLID_49_);}
	.st30{display:inline;fill:url(#XMLID_50_);}
	.st31{display:inline;fill:url(#XMLID_51_);stroke:#000000;stroke-width:4;stroke-miterlimit:10;}
	.st32{display:inline;fill:url(#XMLID_52_);}
	.st33{display:inline;fill:url(#XMLID_53_);}
	.st34{display:none;fill:url(#XMLID_54_);stroke:#000000;stroke-width:4;stroke-miterlimit:10;}
	.st35{display:none;fill:url(#XMLID_55_);}
	.st36{display:none;fill:url(#XMLID_56_);}
	.st37{display:none;fill:url(#XMLID_57_);stroke:#000000;stroke-width:4;stroke-miterlimit:10;}
	.st38{display:none;fill:url(#XMLID_58_);}
	.st39{display:none;fill:url(#XMLID_59_);}
	.st40{display:inline;fill:url(#XMLID_60_);stroke:#000000;stroke-width:4;stroke-miterlimit:10;}
	.st41{display:inline;fill:url(#XMLID_61_);}
	.st42{display:inline;fill:url(#XMLID_62_);}
	.st43{display:none;fill:url(#XMLID_63_);stroke:#000000;stroke-width:4;stroke-miterlimit:10;}
	.st44{display:none;fill:url(#XMLID_64_);}
	.st45{display:none;fill:url(#XMLID_65_);}
	.st46{display:inline;fill:url(#XMLID_67_);stroke:#000000;stroke-width:4;stroke-miterlimit:10;}
	.st47{display:inline;fill:url(#XMLID_68_);}
	.st48{display:inline;fill:url(#XMLID_69_);}
</style>
<linearGradient id="XMLID_14_" gradientUnits="userSpaceOnUse" x1="564.2507" y1="-323.062" x2="564.2507" y2="-564">
	<stop  offset="0" style="stop-color:#081B29"/>
	<stop  offset="0.1382" style="stop-color:#1E3240"/>
	<stop  offset="0.4413" style="stop-color:#47677A"/>
	<stop  offset="0.6962" style="stop-color:#6799B2"/>
	<stop  offset="0.8901" style="stop-color:#7DBDDC"/>
	<stop  offset="1" style="stop-color:#86CFF3"/>
</linearGradient>
<path id="XMLID_145_" class="st0" d="M443.8-564v240.9h240.9V-564H443.8z M564.3-392.4c-28.2,0-51.2-22.9-51.2-51.2
	s22.9-51.2,51.2-51.2s51.2,22.9,51.2,51.2S592.5-392.4,564.3-392.4z"/>
<linearGradient id="XMLID_15_" gradientUnits="userSpaceOnUse" x1="564.2507" y1="-553.2374" x2="564.2507" y2="-333.8246">
	<stop  offset="0" style="stop-color:#081B29"/>
	<stop  offset="0.1382" style="stop-color:#1E3240"/>
	<stop  offset="0.4413" style="stop-color:#47677A"/>
	<stop  offset="0.6962" style="stop-color:#6799B2"/>
	<stop  offset="0.8901" style="stop-color:#7DBDDC"/>
	<stop  offset="1" style="stop-color:#86CFF3"/>
</linearGradient>
<path id="XMLID_142_" class="st1" d="M453.2-553.2v219.4h222.1v-219.4H453.2z M564.3-392.4c-28.2,0-51.2-22.9-51.2-51.2
	c0-28.2,22.9-51.2,51.2-51.2s51.2,22.9,51.2,51.2C615.4-415.3,592.5-392.4,564.3-392.4z"/>
<linearGradient id="XMLID_16_" gradientUnits="userSpaceOnUse" x1="564.2507" y1="-341.5216" x2="564.2507" y2="-545.5405">
	<stop  offset="0" style="stop-color:#081B29"/>
	<stop  offset="0.1382" style="stop-color:#1E3240"/>
	<stop  offset="0.4413" style="stop-color:#47677A"/>
	<stop  offset="0.6962" style="stop-color:#6799B2"/>
	<stop  offset="0.8901" style="stop-color:#7DBDDC"/>
	<stop  offset="1" style="stop-color:#86CFF3"/>
</linearGradient>
<path id="XMLID_143_" class="st2" d="M462.2-545.5v204h204v-204H462.2z M564.3-392.4c-28.2,0-51.2-22.9-51.2-51.2
	s22.9-51.2,51.2-51.2s51.2,22.9,51.2,51.2S592.5-392.4,564.3-392.4z"/>
<g id="XMLID_129_" class="st3">
	<linearGradient id="XMLID_18_" gradientUnits="userSpaceOnUse" x1="927.5488" y1="-323.062" x2="927.5488" y2="-564">
		<stop  offset="0" style="stop-color:#081B29"/>
		<stop  offset="0.1382" style="stop-color:#1E3240"/>
		<stop  offset="0.4413" style="stop-color:#47677A"/>
		<stop  offset="0.6962" style="stop-color:#6799B2"/>
		<stop  offset="0.8901" style="stop-color:#7DBDDC"/>
		<stop  offset="1" style="stop-color:#86CFF3"/>
	</linearGradient>
	<rect id="XMLID_140_" x="807.1" y="-564" class="st4" width="240.9" height="240.9"/>
	<linearGradient id="XMLID_19_" gradientUnits="userSpaceOnUse" x1="927.5488" y1="-553.2374" x2="927.5488" y2="-333.8246">
		<stop  offset="0" style="stop-color:#081B29"/>
		<stop  offset="0.1382" style="stop-color:#1E3240"/>
		<stop  offset="0.4413" style="stop-color:#47677A"/>
		<stop  offset="0.6962" style="stop-color:#6799B2"/>
		<stop  offset="0.8901" style="stop-color:#7DBDDC"/>
		<stop  offset="1" style="stop-color:#86CFF3"/>
	</linearGradient>
	<rect id="XMLID_133_" x="816.5" y="-553.2" class="st5" width="222.1" height="219.4"/>
	<linearGradient id="XMLID_20_" gradientUnits="userSpaceOnUse" x1="927.5488" y1="-341.5216" x2="927.5488" y2="-545.5405">
		<stop  offset="0" style="stop-color:#081B29"/>
		<stop  offset="0.1382" style="stop-color:#1E3240"/>
		<stop  offset="0.4413" style="stop-color:#47677A"/>
		<stop  offset="0.6962" style="stop-color:#6799B2"/>
		<stop  offset="0.8901" style="stop-color:#7DBDDC"/>
		<stop  offset="1" style="stop-color:#86CFF3"/>
	</linearGradient>
	<rect id="XMLID_132_" x="825.5" y="-545.5" class="st6" width="204" height="204"/>
</g>
<g id="XMLID_150_" class="st3">
	<linearGradient id="XMLID_21_" gradientUnits="userSpaceOnUse" x1="1239.9965" y1="-264.4008" x2="1239.9965" y2="-505.3385">
		<stop  offset="0" style="stop-color:#081B29"/>
		<stop  offset="0.1382" style="stop-color:#1E3240"/>
		<stop  offset="0.4413" style="stop-color:#47677A"/>
		<stop  offset="0.6962" style="stop-color:#6799B2"/>
		<stop  offset="0.8901" style="stop-color:#7DBDDC"/>
		<stop  offset="1" style="stop-color:#86CFF3"/>
	</linearGradient>
	<circle id="XMLID_149_" class="st7" cx="1240" cy="-384.9" r="120.5"/>
	<linearGradient id="XMLID_22_" gradientUnits="userSpaceOnUse" x1="1239.9965" y1="-492.6616" x2="1239.9965" y2="-277.0777">
		<stop  offset="0" style="stop-color:#081B29"/>
		<stop  offset="0.1382" style="stop-color:#1E3240"/>
		<stop  offset="0.4413" style="stop-color:#47677A"/>
		<stop  offset="0.6962" style="stop-color:#6799B2"/>
		<stop  offset="0.8901" style="stop-color:#7DBDDC"/>
		<stop  offset="1" style="stop-color:#86CFF3"/>
	</linearGradient>
	<circle id="XMLID_131_" class="st8" cx="1240" cy="-384.9" r="107.8"/>
	<linearGradient id="XMLID_24_" gradientUnits="userSpaceOnUse" x1="1239.9965" y1="-289.0622" x2="1239.9965" y2="-480.6772">
		<stop  offset="0" style="stop-color:#081B29"/>
		<stop  offset="0.1382" style="stop-color:#1E3240"/>
		<stop  offset="0.4413" style="stop-color:#47677A"/>
		<stop  offset="0.6962" style="stop-color:#6799B2"/>
		<stop  offset="0.8901" style="stop-color:#7DBDDC"/>
		<stop  offset="1" style="stop-color:#86CFF3"/>
	</linearGradient>
	<circle id="XMLID_66_" class="st9" cx="1240" cy="-384.9" r="95.8"/>
</g>
<linearGradient id="XMLID_25_" gradientUnits="userSpaceOnUse" x1="1606.7771" y1="-289.0622" x2="1606.7771" y2="-529.9999">
	<stop  offset="0" style="stop-color:#081B29"/>
	<stop  offset="0.1382" style="stop-color:#1E3240"/>
	<stop  offset="0.4413" style="stop-color:#47677A"/>
	<stop  offset="0.6962" style="stop-color:#6799B2"/>
	<stop  offset="0.8901" style="stop-color:#7DBDDC"/>
	<stop  offset="1" style="stop-color:#86CFF3"/>
</linearGradient>
<path id="XMLID_157_" class="st10" d="M1606.8-530c-66.5,0-120.5,53.9-120.5,120.5s53.9,120.5,120.5,120.5
	c66.5,0,120.5-53.9,120.5-120.5S1673.3-530,1606.8-530z M1606.8-358.4c-28.2,0-51.2-22.9-51.2-51.2c0-28.2,22.9-51.2,51.2-51.2
	c28.2,0,51.2,22.9,51.2,51.2C1657.9-381.3,1635-358.4,1606.8-358.4z"/>
<linearGradient id="XMLID_26_" gradientUnits="userSpaceOnUse" x1="1606.7771" y1="-517.3229" x2="1606.7771" y2="-301.7391">
	<stop  offset="0" style="stop-color:#081B29"/>
	<stop  offset="0.1382" style="stop-color:#1E3240"/>
	<stop  offset="0.4413" style="stop-color:#47677A"/>
	<stop  offset="0.6962" style="stop-color:#6799B2"/>
	<stop  offset="0.8901" style="stop-color:#7DBDDC"/>
	<stop  offset="1" style="stop-color:#86CFF3"/>
</linearGradient>
<path id="XMLID_154_" class="st11" d="M1606.8-517.3c-59.5,0-107.8,48.3-107.8,107.8c0,59.5,48.3,107.8,107.8,107.8
	c59.5,0,107.8-48.3,107.8-107.8C1714.6-469.1,1666.3-517.3,1606.8-517.3z M1606.8-358.4c-28.2,0-51.2-22.9-51.2-51.2
	s22.9-51.2,51.2-51.2c28.2,0,51.2,22.9,51.2,51.2S1635-358.4,1606.8-358.4z"/>
<linearGradient id="XMLID_27_" gradientUnits="userSpaceOnUse" x1="1606.7771" y1="-313.7235" x2="1606.7771" y2="-505.3385">
	<stop  offset="0" style="stop-color:#081B29"/>
	<stop  offset="0.1382" style="stop-color:#1E3240"/>
	<stop  offset="0.4413" style="stop-color:#47677A"/>
	<stop  offset="0.6962" style="stop-color:#6799B2"/>
	<stop  offset="0.8901" style="stop-color:#7DBDDC"/>
	<stop  offset="1" style="stop-color:#86CFF3"/>
</linearGradient>
<path id="XMLID_151_" class="st12" d="M1606.8-505.3c-52.9,0-95.8,42.9-95.8,95.8s42.9,95.8,95.8,95.8c52.9,0,95.8-42.9,95.8-95.8
	S1659.7-505.3,1606.8-505.3z M1606.8-358.4c-28.2,0-51.2-22.9-51.2-51.2c0-28.2,22.9-51.2,51.2-51.2c28.2,0,51.2,22.9,51.2,51.2
	C1657.9-381.3,1635-358.4,1606.8-358.4z"/>
<linearGradient id="XMLID_28_" gradientUnits="userSpaceOnUse" x1="545.5217" y1="-665.0715" x2="545.5217" y2="-840.0859">
	<stop  offset="0" style="stop-color:#081B29"/>
	<stop  offset="0.1382" style="stop-color:#1E3240"/>
	<stop  offset="0.4413" style="stop-color:#47677A"/>
	<stop  offset="0.6962" style="stop-color:#6799B2"/>
	<stop  offset="0.8901" style="stop-color:#7DBDDC"/>
	<stop  offset="1" style="stop-color:#86CFF3"/>
</linearGradient>
<path id="XMLID_184_" class="st13" d="M458-840.1v175h175v-175H458z M545.5-715.4c-20.5,0-37.2-16.6-37.2-37.2s16.6-37.2,37.2-37.2
	s37.2,16.6,37.2,37.2S566-715.4,545.5-715.4z"/>
<linearGradient id="XMLID_34_" gradientUnits="userSpaceOnUse" x1="545.5217" y1="-832.2681" x2="545.5217" y2="-672.8893">
	<stop  offset="0" style="stop-color:#081B29"/>
	<stop  offset="0.1382" style="stop-color:#1E3240"/>
	<stop  offset="0.4413" style="stop-color:#47677A"/>
	<stop  offset="0.6962" style="stop-color:#6799B2"/>
	<stop  offset="0.8901" style="stop-color:#7DBDDC"/>
	<stop  offset="1" style="stop-color:#86CFF3"/>
</linearGradient>
<path id="XMLID_181_" class="st14" d="M464.9-832.3v159.4h161.3v-159.4H464.9z M545.5-715.4c-20.5,0-37.2-16.6-37.2-37.2
	s16.6-37.2,37.2-37.2c20.5,0,37.2,16.6,37.2,37.2S566-715.4,545.5-715.4z"/>
<linearGradient id="XMLID_35_" gradientUnits="userSpaceOnUse" x1="545.5217" y1="-678.4803" x2="545.5217" y2="-826.6772">
	<stop  offset="0" style="stop-color:#081B29"/>
	<stop  offset="0.1382" style="stop-color:#1E3240"/>
	<stop  offset="0.4413" style="stop-color:#47677A"/>
	<stop  offset="0.6962" style="stop-color:#6799B2"/>
	<stop  offset="0.8901" style="stop-color:#7DBDDC"/>
	<stop  offset="1" style="stop-color:#86CFF3"/>
</linearGradient>
<path id="XMLID_178_" class="st15" d="M471.4-826.7v148.2h148.2v-148.2H471.4z M545.5-715.4c-20.5,0-37.2-16.6-37.2-37.2
	c0-20.5,16.6-37.2,37.2-37.2c20.5,0,37.2,16.6,37.2,37.2C582.7-732.1,566-715.4,545.5-715.4z"/>
<g id="XMLID_173_" class="st3">
	<linearGradient id="XMLID_36_" gradientUnits="userSpaceOnUse" x1="782.469" y1="-665.0715" x2="782.469" y2="-840.086">
		<stop  offset="0" style="stop-color:#081B29"/>
		<stop  offset="0.1382" style="stop-color:#1E3240"/>
		<stop  offset="0.4413" style="stop-color:#47677A"/>
		<stop  offset="0.6962" style="stop-color:#6799B2"/>
		<stop  offset="0.8901" style="stop-color:#7DBDDC"/>
		<stop  offset="1" style="stop-color:#86CFF3"/>
	</linearGradient>
	<rect id="XMLID_177_" x="695" y="-840.1" class="st16" width="175" height="175"/>
	<linearGradient id="XMLID_37_" gradientUnits="userSpaceOnUse" x1="782.469" y1="-832.2681" x2="782.469" y2="-672.8893">
		<stop  offset="0" style="stop-color:#081B29"/>
		<stop  offset="0.1382" style="stop-color:#1E3240"/>
		<stop  offset="0.4413" style="stop-color:#47677A"/>
		<stop  offset="0.6962" style="stop-color:#6799B2"/>
		<stop  offset="0.8901" style="stop-color:#7DBDDC"/>
		<stop  offset="1" style="stop-color:#86CFF3"/>
	</linearGradient>
	<rect id="XMLID_176_" x="701.8" y="-832.3" class="st17" width="161.3" height="159.4"/>
	<linearGradient id="XMLID_38_" gradientUnits="userSpaceOnUse" x1="782.469" y1="-678.4803" x2="782.469" y2="-826.6772">
		<stop  offset="0" style="stop-color:#081B29"/>
		<stop  offset="0.1382" style="stop-color:#1E3240"/>
		<stop  offset="0.4413" style="stop-color:#47677A"/>
		<stop  offset="0.6962" style="stop-color:#6799B2"/>
		<stop  offset="0.8901" style="stop-color:#7DBDDC"/>
		<stop  offset="1" style="stop-color:#86CFF3"/>
	</linearGradient>
	<rect id="XMLID_174_" x="708.4" y="-826.7" class="st18" width="148.2" height="148.2"/>
</g>
<g id="XMLID_169_">
	<linearGradient id="XMLID_39_" gradientUnits="userSpaceOnUse" x1="122.469" y1="209.9761" x2="122.469" y2="34.9619">
		<stop  offset="0" style="stop-color:#081B29"/>
		<stop  offset="0.1382" style="stop-color:#1E3240"/>
		<stop  offset="0.4413" style="stop-color:#47677A"/>
		<stop  offset="0.6962" style="stop-color:#6799B2"/>
		<stop  offset="0.8901" style="stop-color:#7DBDDC"/>
		<stop  offset="1" style="stop-color:#86CFF3"/>
	</linearGradient>
	<circle id="XMLID_172_" class="st19" cx="122.5" cy="122.5" r="87.5"/>
	<linearGradient id="XMLID_40_" gradientUnits="userSpaceOnUse" x1="122.469" y1="44.1702" x2="122.469" y2="200.7678">
		<stop  offset="0" style="stop-color:#081B29"/>
		<stop  offset="0.1382" style="stop-color:#1E3240"/>
		<stop  offset="0.4413" style="stop-color:#47677A"/>
		<stop  offset="0.6962" style="stop-color:#6799B2"/>
		<stop  offset="0.8901" style="stop-color:#7DBDDC"/>
		<stop  offset="1" style="stop-color:#86CFF3"/>
	</linearGradient>
	<circle id="XMLID_171_" class="st20" cx="122.5" cy="122.5" r="78.3"/>
	<linearGradient id="XMLID_41_" gradientUnits="userSpaceOnUse" x1="122.469" y1="192.0624" x2="122.469" y2="52.8756">
		<stop  offset="0" style="stop-color:#081B29"/>
		<stop  offset="0.1382" style="stop-color:#1E3240"/>
		<stop  offset="0.4413" style="stop-color:#47677A"/>
		<stop  offset="0.6962" style="stop-color:#6799B2"/>
		<stop  offset="0.8901" style="stop-color:#7DBDDC"/>
		<stop  offset="1" style="stop-color:#86CFF3"/>
	</linearGradient>
	<circle id="XMLID_170_" class="st21" cx="122.5" cy="122.5" r="69.6"/>
</g>
<linearGradient id="XMLID_42_" gradientUnits="userSpaceOnUse" x1="1275.7065" y1="-657.2539" x2="1275.7065" y2="-832.2682">
	<stop  offset="0" style="stop-color:#081B29"/>
	<stop  offset="0.1382" style="stop-color:#1E3240"/>
	<stop  offset="0.4413" style="stop-color:#47677A"/>
	<stop  offset="0.6962" style="stop-color:#6799B2"/>
	<stop  offset="0.8901" style="stop-color:#7DBDDC"/>
	<stop  offset="1" style="stop-color:#86CFF3"/>
</linearGradient>
<path id="XMLID_166_" class="st22" d="M1275.7-832.3c-48.3,0-87.5,39.2-87.5,87.5s39.2,87.5,87.5,87.5c48.3,0,87.5-39.2,87.5-87.5
	S1324-832.3,1275.7-832.3z M1275.7-707.6c-20.5,0-37.2-16.6-37.2-37.2s16.6-37.2,37.2-37.2c20.5,0,37.2,16.6,37.2,37.2
	S1296.2-707.6,1275.7-707.6z"/>
<linearGradient id="XMLID_43_" gradientUnits="userSpaceOnUse" x1="1275.7065" y1="-823.0598" x2="1275.7065" y2="-666.4623">
	<stop  offset="0" style="stop-color:#081B29"/>
	<stop  offset="0.1382" style="stop-color:#1E3240"/>
	<stop  offset="0.4413" style="stop-color:#47677A"/>
	<stop  offset="0.6962" style="stop-color:#6799B2"/>
	<stop  offset="0.8901" style="stop-color:#7DBDDC"/>
	<stop  offset="1" style="stop-color:#86CFF3"/>
</linearGradient>
<path id="XMLID_163_" class="st23" d="M1275.7-823.1c-43.2,0-78.3,35.1-78.3,78.3c0,43.2,35.1,78.3,78.3,78.3
	c43.2,0,78.3-35.1,78.3-78.3C1354-788,1318.9-823.1,1275.7-823.1z M1275.7-707.6c-20.5,0-37.2-16.6-37.2-37.2s16.6-37.2,37.2-37.2
	c20.5,0,37.2,16.6,37.2,37.2S1296.2-707.6,1275.7-707.6z"/>
<linearGradient id="XMLID_44_" gradientUnits="userSpaceOnUse" x1="1275.7065" y1="-675.1677" x2="1275.7065" y2="-814.3545">
	<stop  offset="0" style="stop-color:#081B29"/>
	<stop  offset="0.1382" style="stop-color:#1E3240"/>
	<stop  offset="0.4413" style="stop-color:#47677A"/>
	<stop  offset="0.6962" style="stop-color:#6799B2"/>
	<stop  offset="0.8901" style="stop-color:#7DBDDC"/>
	<stop  offset="1" style="stop-color:#86CFF3"/>
</linearGradient>
<path id="XMLID_160_" class="st24" d="M1275.7-814.4c-38.4,0-69.6,31.2-69.6,69.6s31.2,69.6,69.6,69.6c38.4,0,69.6-31.2,69.6-69.6
	S1314.1-814.4,1275.7-814.4z M1275.7-707.6c-20.5,0-37.2-16.6-37.2-37.2c0-20.5,16.6-37.2,37.2-37.2c20.5,0,37.2,16.6,37.2,37.2
	C1312.9-724.2,1296.2-707.6,1275.7-707.6z"/>
<linearGradient id="XMLID_45_" gradientUnits="userSpaceOnUse" x1="721.8746" y1="270.2474" x2="721.8746" y2="29.3094">
	<stop  offset="0" style="stop-color:#5C1313"/>
	<stop  offset="1" style="stop-color:#EF3D48"/>
</linearGradient>
<path id="XMLID_236_" class="st25" d="M601.4,29.3v240.9h240.9V29.3H601.4z M721.9,200.9c-28.2,0-51.2-22.9-51.2-51.2
	s22.9-51.2,51.2-51.2s51.2,22.9,51.2,51.2S750.1,200.9,721.9,200.9z"/>
<linearGradient id="XMLID_46_" gradientUnits="userSpaceOnUse" x1="721.8746" y1="40.072" x2="721.8746" y2="259.4848">
	<stop  offset="0" style="stop-color:#5C1313"/>
	<stop  offset="1" style="stop-color:#EF3D48"/>
</linearGradient>
<path id="XMLID_233_" class="st26" d="M610.8,40.1v219.4h222.1V40.1H610.8z M721.9,200.9c-28.2,0-51.2-22.9-51.2-51.2
	c0-28.2,22.9-51.2,51.2-51.2s51.2,22.9,51.2,51.2C773,178,750.1,200.9,721.9,200.9z"/>
<linearGradient id="XMLID_47_" gradientUnits="userSpaceOnUse" x1="721.8746" y1="251.7878" x2="721.8746" y2="47.769">
	<stop  offset="0" style="stop-color:#5C1313"/>
	<stop  offset="1" style="stop-color:#EF3D48"/>
</linearGradient>
<path id="XMLID_230_" class="st27" d="M619.9,47.8v204h204v-204H619.9z M721.9,200.9c-28.2,0-51.2-22.9-51.2-51.2
	s22.9-51.2,51.2-51.2s51.2,22.9,51.2,51.2S750.1,200.9,721.9,200.9z"/>
<g id="XMLID_226_" class="st3">
	<linearGradient id="XMLID_48_" gradientUnits="userSpaceOnUse" x1="1038.5822" y1="270.2474" x2="1038.5822" y2="29.3094">
		<stop  offset="0" style="stop-color:#5C1313"/>
		<stop  offset="1" style="stop-color:#EF3D48"/>
	</linearGradient>
	<rect id="XMLID_229_" x="918.1" y="29.3" class="st28" width="240.9" height="240.9"/>
	<linearGradient id="XMLID_49_" gradientUnits="userSpaceOnUse" x1="1038.582" y1="40.072" x2="1038.582" y2="259.4848">
		<stop  offset="0" style="stop-color:#5C1313"/>
		<stop  offset="1" style="stop-color:#EF3D48"/>
	</linearGradient>
	<rect id="XMLID_228_" x="927.5" y="40.1" class="st29" width="222.1" height="219.4"/>
	<linearGradient id="XMLID_50_" gradientUnits="userSpaceOnUse" x1="1038.582" y1="251.7879" x2="1038.582" y2="47.769">
		<stop  offset="0" style="stop-color:#5C1313"/>
		<stop  offset="1" style="stop-color:#EF3D48"/>
	</linearGradient>
	<rect id="XMLID_227_" x="936.6" y="47.8" class="st30" width="204" height="204"/>
</g>
<g id="XMLID_222_" class="st3">
	<linearGradient id="XMLID_51_" gradientUnits="userSpaceOnUse" x1="1327.5035" y1="270.2473" x2="1327.5035" y2="29.3096">
		<stop  offset="0" style="stop-color:#5C1313"/>
		<stop  offset="1" style="stop-color:#EF3D48"/>
	</linearGradient>
	<circle id="XMLID_225_" class="st31" cx="1327.5" cy="149.8" r="120.5"/>
	<linearGradient id="XMLID_52_" gradientUnits="userSpaceOnUse" x1="1327.5035" y1="41.9865" x2="1327.5035" y2="257.5703">
		<stop  offset="0" style="stop-color:#5C1313"/>
		<stop  offset="1" style="stop-color:#EF3D48"/>
	</linearGradient>
	<circle id="XMLID_224_" class="st32" cx="1327.5" cy="149.8" r="107.8"/>
	<linearGradient id="XMLID_53_" gradientUnits="userSpaceOnUse" x1="1327.5035" y1="245.5859" x2="1327.5035" y2="53.9709">
		<stop  offset="0" style="stop-color:#5C1313"/>
		<stop  offset="1" style="stop-color:#EF3D48"/>
	</linearGradient>
	<circle id="XMLID_223_" class="st33" cx="1327.5" cy="149.8" r="95.8"/>
</g>
<linearGradient id="XMLID_54_" gradientUnits="userSpaceOnUse" x1="1631.4384" y1="288.7067" x2="1631.4384" y2="47.769">
	<stop  offset="0" style="stop-color:#5C1313"/>
	<stop  offset="1" style="stop-color:#EF3D48"/>
</linearGradient>
<path id="XMLID_219_" class="st34" d="M1631.4,47.8c-66.5,0-120.5,53.9-120.5,120.5s53.9,120.5,120.5,120.5
	c66.5,0,120.5-53.9,120.5-120.5S1698,47.8,1631.4,47.8z M1631.4,219.4c-28.2,0-51.2-22.9-51.2-51.2c0-28.2,22.9-51.2,51.2-51.2
	c28.2,0,51.2,22.9,51.2,51.2C1682.6,196.5,1659.7,219.4,1631.4,219.4z"/>
<linearGradient id="XMLID_55_" gradientUnits="userSpaceOnUse" x1="1631.4384" y1="60.4459" x2="1631.4384" y2="276.0298">
	<stop  offset="0" style="stop-color:#5C1313"/>
	<stop  offset="1" style="stop-color:#EF3D48"/>
</linearGradient>
<path id="XMLID_216_" class="st35" d="M1631.4,60.4c-59.5,0-107.8,48.3-107.8,107.8c0,59.5,48.3,107.8,107.8,107.8
	s107.8-48.3,107.8-107.8C1739.2,108.7,1691,60.4,1631.4,60.4z M1631.4,219.4c-28.2,0-51.2-22.9-51.2-51.2s22.9-51.2,51.2-51.2
	c28.2,0,51.2,22.9,51.2,51.2S1659.7,219.4,1631.4,219.4z"/>
<linearGradient id="XMLID_56_" gradientUnits="userSpaceOnUse" x1="1631.4384" y1="264.0453" x2="1631.4384" y2="72.4304">
	<stop  offset="0" style="stop-color:#5C1313"/>
	<stop  offset="1" style="stop-color:#EF3D48"/>
</linearGradient>
<path id="XMLID_213_" class="st36" d="M1631.4,72.4c-52.9,0-95.8,42.9-95.8,95.8s42.9,95.8,95.8,95.8c52.9,0,95.8-42.9,95.8-95.8
	S1684.4,72.4,1631.4,72.4z M1631.4,219.4c-28.2,0-51.2-22.9-51.2-51.2c0-28.2,22.9-51.2,51.2-51.2c28.2,0,51.2,22.9,51.2,51.2
	C1682.6,196.5,1659.7,219.4,1631.4,219.4z"/>
<linearGradient id="XMLID_57_" gradientUnits="userSpaceOnUse" x1="582.6766" y1="-32.6724" x2="582.6766" y2="-207.6868">
	<stop  offset="0" style="stop-color:#5C1313"/>
	<stop  offset="1" style="stop-color:#EF3D48"/>
</linearGradient>
<path id="XMLID_210_" class="st37" d="M495.2-207.7v175h175v-175H495.2z M582.7-83c-20.5,0-37.2-16.6-37.2-37.2s16.6-37.2,37.2-37.2
	c20.5,0,37.2,16.6,37.2,37.2S603.2-83,582.7-83z"/>
<linearGradient id="XMLID_58_" gradientUnits="userSpaceOnUse" x1="582.6766" y1="-199.869" x2="582.6766" y2="-40.4902">
	<stop  offset="0" style="stop-color:#5C1313"/>
	<stop  offset="1" style="stop-color:#EF3D48"/>
</linearGradient>
<path id="XMLID_207_" class="st38" d="M502-199.9v159.4h161.3v-159.4H502z M582.7-83c-20.5,0-37.2-16.6-37.2-37.2
	c0-20.5,16.6-37.2,37.2-37.2s37.2,16.6,37.2,37.2C619.8-99.7,603.2-83,582.7-83z"/>
<linearGradient id="XMLID_59_" gradientUnits="userSpaceOnUse" x1="582.6766" y1="-46.0812" x2="582.6766" y2="-194.278">
	<stop  offset="0" style="stop-color:#5C1313"/>
	<stop  offset="1" style="stop-color:#EF3D48"/>
</linearGradient>
<path id="XMLID_204_" class="st39" d="M508.6-194.3v148.2h148.2v-148.2H508.6z M582.7-83c-20.5,0-37.2-16.6-37.2-37.2
	s16.6-37.2,37.2-37.2s37.2,16.6,37.2,37.2S603.2-83,582.7-83z"/>
<g id="XMLID_196_" class="st3">
	<linearGradient id="XMLID_60_" gradientUnits="userSpaceOnUse" x1="1084.332" y1="-40.4902" x2="1084.332" y2="-215.5045">
		<stop  offset="0" style="stop-color:#5C1313"/>
		<stop  offset="1" style="stop-color:#EF3D48"/>
	</linearGradient>
	<circle id="XMLID_199_" class="st40" cx="1084.3" cy="-128" r="87.5"/>
	<linearGradient id="XMLID_61_" gradientUnits="userSpaceOnUse" x1="1084.332" y1="-206.2961" x2="1084.332" y2="-49.6986">
		<stop  offset="0" style="stop-color:#5C1313"/>
		<stop  offset="1" style="stop-color:#EF3D48"/>
	</linearGradient>
	<circle id="XMLID_198_" class="st41" cx="1084.3" cy="-128" r="78.3"/>
	<linearGradient id="XMLID_62_" gradientUnits="userSpaceOnUse" x1="1084.332" y1="-58.4039" x2="1084.332" y2="-197.5908">
		<stop  offset="0" style="stop-color:#5C1313"/>
		<stop  offset="1" style="stop-color:#EF3D48"/>
	</linearGradient>
	<circle id="XMLID_197_" class="st42" cx="1084.3" cy="-128" r="69.6"/>
</g>
<linearGradient id="XMLID_63_" gradientUnits="userSpaceOnUse" x1="1327.5035" y1="-32.6725" x2="1327.5035" y2="-207.6868">
	<stop  offset="0" style="stop-color:#5C1313"/>
	<stop  offset="1" style="stop-color:#EF3D48"/>
</linearGradient>
<path id="XMLID_193_" class="st43" d="M1327.5-207.7c-48.3,0-87.5,39.2-87.5,87.5c0,48.3,39.2,87.5,87.5,87.5s87.5-39.2,87.5-87.5
	C1415-168.5,1375.8-207.7,1327.5-207.7z M1327.5-83c-20.5,0-37.2-16.6-37.2-37.2c0-20.5,16.6-37.2,37.2-37.2
	c20.5,0,37.2,16.6,37.2,37.2C1364.7-99.7,1348-83,1327.5-83z"/>
<linearGradient id="XMLID_64_" gradientUnits="userSpaceOnUse" x1="1327.5035" y1="-198.4784" x2="1327.5035" y2="-41.8809">
	<stop  offset="0" style="stop-color:#5C1313"/>
	<stop  offset="1" style="stop-color:#EF3D48"/>
</linearGradient>
<path id="XMLID_190_" class="st44" d="M1327.5-198.5c-43.2,0-78.3,35.1-78.3,78.3c0,43.2,35.1,78.3,78.3,78.3s78.3-35.1,78.3-78.3
	C1405.8-163.4,1370.7-198.5,1327.5-198.5z M1327.5-83c-20.5,0-37.2-16.6-37.2-37.2s16.6-37.2,37.2-37.2s37.2,16.6,37.2,37.2
	S1348-83,1327.5-83z"/>
<linearGradient id="XMLID_65_" gradientUnits="userSpaceOnUse" x1="1327.5035" y1="-50.5862" x2="1327.5035" y2="-189.773">
	<stop  offset="0" style="stop-color:#5C1313"/>
	<stop  offset="1" style="stop-color:#EF3D48"/>
</linearGradient>
<path id="XMLID_187_" class="st45" d="M1327.5-189.8c-38.4,0-69.6,31.2-69.6,69.6s31.2,69.6,69.6,69.6c38.4,0,69.6-31.2,69.6-69.6
	S1365.9-189.8,1327.5-189.8z M1327.5-83c-20.5,0-37.2-16.6-37.2-37.2c0-20.5,16.6-37.2,37.2-37.2s37.2,16.6,37.2,37.2
	C1364.7-99.7,1348-83,1327.5-83z"/>
<g id="XMLID_1_" class="st3">
	<linearGradient id="XMLID_67_" gradientUnits="userSpaceOnUse" x1="842.3436" y1="-40.4901" x2="842.3436" y2="-215.5046">
		<stop  offset="0" style="stop-color:#5C1313"/>
		<stop  offset="1" style="stop-color:#EF3D48"/>
	</linearGradient>
	<rect id="XMLID_10_" x="754.8" y="-215.5" class="st46" width="175" height="175"/>
	<linearGradient id="XMLID_68_" gradientUnits="userSpaceOnUse" x1="842.3436" y1="-207.6868" x2="842.3436" y2="-48.3079">
		<stop  offset="0" style="stop-color:#5C1313"/>
		<stop  offset="1" style="stop-color:#EF3D48"/>
	</linearGradient>
	<rect id="XMLID_9_" x="761.7" y="-207.7" class="st47" width="161.3" height="159.4"/>
	<linearGradient id="XMLID_69_" gradientUnits="userSpaceOnUse" x1="842.3436" y1="-53.8989" x2="842.3436" y2="-202.0958">
		<stop  offset="0" style="stop-color:#5C1313"/>
		<stop  offset="1" style="stop-color:#EF3D48"/>
	</linearGradient>
	<rect id="XMLID_2_" x="768.2" y="-202.1" class="st48" width="148.2" height="148.2"/>
</g>
</svg>
