<?xml version="1.0" encoding="utf-8"?>
<!-- Generator: Adobe Illustrator 19.0.0, SVG Export Plug-In . SVG Version: 6.00 Build 0)  -->
<svg version="1.1" id="Layer_1" xmlns="http://www.w3.org/2000/svg" xmlns:xlink="http://www.w3.org/1999/xlink" x="0px" y="0px"
	 viewBox="0 0 244.9 244.9" style="enable-background:new 0 0 244.9 244.9;" xml:space="preserve">
<style type="text/css">
	.st0{display:none;fill:url(#XMLID_2_);stroke:#000000;stroke-width:4;stroke-miterlimit:10;}
	.st1{display:none;fill:url(#XMLID_9_);}
	.st2{display:none;fill:url(#XMLID_10_);}
	.st3{display:none;}
	.st4{display:inline;fill:#EC008C;}
	.st5{display:inline;}
	.st6{display:none;fill:#EC008C;stroke:#000000;stroke-width:4;stroke-miterlimit:10;}
	.st7{display:inline;fill:url(#XMLID_13_);stroke:#000000;stroke-width:4;stroke-miterlimit:10;}
	.st8{display:inline;fill:url(#XMLID_15_);}
	.st9{display:inline;fill:url(#XMLID_16_);}
	.st10{display:inline;fill:url(#XMLID_18_);stroke:#000000;stroke-width:4;stroke-miterlimit:10;}
	.st11{display:inline;fill:url(#XMLID_19_);}
	.st12{display:inline;fill:url(#XMLID_20_);}
	.st13{display:none;fill:url(#XMLID_21_);stroke:#000000;stroke-width:4;stroke-miterlimit:10;}
	.st14{display:none;fill:url(#XMLID_22_);}
	.st15{display:none;fill:url(#XMLID_24_);}
	.st16{display:none;fill:url(#XMLID_25_);stroke:#000000;stroke-width:4;stroke-miterlimit:10;}
	.st17{display:none;fill:url(#XMLID_26_);}
	.st18{display:none;fill:url(#XMLID_27_);}
	.st19{display:inline;fill:url(#XMLID_28_);stroke:#000000;stroke-width:4;stroke-miterlimit:10;}
	.st20{display:inline;fill:url(#XMLID_34_);}
	.st21{display:inline;fill:url(#XMLID_35_);}
	.st22{display:inline;fill:url(#XMLID_36_);stroke:#000000;stroke-width:4;stroke-miterlimit:10;}
	.st23{display:inline;fill:url(#XMLID_37_);}
	.st24{display:inline;fill:url(#XMLID_38_);}
	.st25{display:none;fill:url(#XMLID_39_);stroke:#000000;stroke-width:4;stroke-miterlimit:10;}
	.st26{display:none;fill:url(#XMLID_40_);}
	.st27{display:none;fill:url(#XMLID_41_);}
	.st28{display:none;fill:url(#XMLID_42_);stroke:#000000;stroke-width:4;stroke-miterlimit:10;}
	.st29{display:none;fill:url(#XMLID_43_);}
	.st30{display:none;fill:url(#XMLID_44_);}
	.st31{fill:url(#XMLID_45_);stroke:#000000;stroke-width:4;stroke-miterlimit:10;}
	.st32{fill:url(#XMLID_46_);}
	.st33{fill:url(#XMLID_47_);}
	.st34{display:inline;fill:url(#XMLID_48_);stroke:#000000;stroke-width:4;stroke-miterlimit:10;}
	.st35{display:inline;fill:url(#XMLID_49_);}
	.st36{display:inline;fill:url(#XMLID_50_);}
	.st37{display:none;fill:url(#XMLID_51_);stroke:#000000;stroke-width:4;stroke-miterlimit:10;}
	.st38{display:none;fill:url(#XMLID_52_);}
	.st39{display:none;fill:url(#XMLID_53_);}
	.st40{display:none;fill:url(#XMLID_54_);stroke:#000000;stroke-width:4;stroke-miterlimit:10;}
	.st41{display:none;fill:url(#XMLID_55_);}
	.st42{display:none;fill:url(#XMLID_56_);}
	.st43{display:inline;fill:url(#XMLID_57_);stroke:#000000;stroke-width:4;stroke-miterlimit:10;}
	.st44{display:inline;fill:url(#XMLID_58_);}
	.st45{display:inline;fill:url(#XMLID_59_);}
	.st46{display:inline;fill:url(#XMLID_60_);stroke:#000000;stroke-width:4;stroke-miterlimit:10;}
	.st47{display:inline;fill:url(#XMLID_61_);}
	.st48{display:inline;fill:url(#XMLID_62_);}
	.st49{display:none;fill:url(#XMLID_63_);stroke:#000000;stroke-width:4;stroke-miterlimit:10;}
	.st50{display:none;fill:url(#XMLID_64_);}
	.st51{display:none;fill:url(#XMLID_65_);}
</style>
<linearGradient id="XMLID_2_" gradientUnits="userSpaceOnUse" x1="633.8267" y1="-372.5205" x2="633.8267" y2="-613.4585">
	<stop  offset="0" style="stop-color:#081B29"/>
	<stop  offset="0.1382" style="stop-color:#1E3240"/>
	<stop  offset="0.4413" style="stop-color:#47677A"/>
	<stop  offset="0.6962" style="stop-color:#6799B2"/>
	<stop  offset="0.8901" style="stop-color:#7DBDDC"/>
	<stop  offset="1" style="stop-color:#86CFF3"/>
</linearGradient>
<path id="XMLID_145_" class="st0" d="M513.4-613.5v240.9h240.9v-240.9H513.4z M633.8-441.8c-28.2,0-51.2-22.9-51.2-51.2
	c0-28.2,22.9-51.2,51.2-51.2S685-521.2,685-493C685-464.7,662.1-441.8,633.8-441.8z"/>
<linearGradient id="XMLID_9_" gradientUnits="userSpaceOnUse" x1="633.8267" y1="-602.6959" x2="633.8267" y2="-383.2831">
	<stop  offset="0" style="stop-color:#081B29"/>
	<stop  offset="0.1382" style="stop-color:#1E3240"/>
	<stop  offset="0.4413" style="stop-color:#47677A"/>
	<stop  offset="0.6962" style="stop-color:#6799B2"/>
	<stop  offset="0.8901" style="stop-color:#7DBDDC"/>
	<stop  offset="1" style="stop-color:#86CFF3"/>
</linearGradient>
<path id="XMLID_142_" class="st1" d="M522.8-602.7v219.4h222.1v-219.4H522.8z M633.8-441.8c-28.2,0-51.2-22.9-51.2-51.2
	c0-28.2,22.9-51.2,51.2-51.2S685-521.2,685-493C685-464.7,662.1-441.8,633.8-441.8z"/>
<linearGradient id="XMLID_10_" gradientUnits="userSpaceOnUse" x1="633.8267" y1="-390.98" x2="633.8267" y2="-594.9989">
	<stop  offset="0" style="stop-color:#081B29"/>
	<stop  offset="0.1382" style="stop-color:#1E3240"/>
	<stop  offset="0.4413" style="stop-color:#47677A"/>
	<stop  offset="0.6962" style="stop-color:#6799B2"/>
	<stop  offset="0.8901" style="stop-color:#7DBDDC"/>
	<stop  offset="1" style="stop-color:#86CFF3"/>
</linearGradient>
<path id="XMLID_143_" class="st2" d="M531.8-595v204h204v-204H531.8z M633.8-441.8c-28.2,0-51.2-22.9-51.2-51.2s22.9-51.2,51.2-51.2
	S685-521.2,685-493S662.1-441.8,633.8-441.8z"/>
<g id="XMLID_14_" class="st3">
	<path id="XMLID_102_" class="st4" d="M1051.4-1029.6c-67.5,0-122.5-54.9-122.5-122.5c0-67.5,54.9-122.5,122.5-122.5
		s122.5,54.9,122.5,122.5C1173.8-1084.6,1118.9-1029.6,1051.4-1029.6z"/>
	<path id="XMLID_99_" class="st5" d="M1051.4-1272.5c66.5,0,120.5,53.9,120.5,120.5c0,66.5-53.9,120.5-120.5,120.5
		s-120.5-53.9-120.5-120.5C930.9-1218.6,984.8-1272.5,1051.4-1272.5 M1051.4-1276.5c-33.2,0-64.5,12.9-88,36.5s-36.5,54.8-36.5,88
		s12.9,64.5,36.5,88s54.8,36.5,88,36.5s64.5-12.9,88-36.5s36.5-54.8,36.5-88s-12.9-64.5-36.5-88S1084.6-1276.5,1051.4-1276.5
		L1051.4-1276.5z"/>
</g>
<rect id="XMLID_141_" x="588" y="-1279.1" class="st6" width="240.9" height="240.9"/>
<g id="XMLID_129_" class="st3">
	<linearGradient id="XMLID_13_" gradientUnits="userSpaceOnUse" x1="949.361" y1="-372.5205" x2="949.361" y2="-613.4585">
		<stop  offset="0" style="stop-color:#081B29"/>
		<stop  offset="0.1382" style="stop-color:#1E3240"/>
		<stop  offset="0.4413" style="stop-color:#47677A"/>
		<stop  offset="0.6962" style="stop-color:#6799B2"/>
		<stop  offset="0.8901" style="stop-color:#7DBDDC"/>
		<stop  offset="1" style="stop-color:#86CFF3"/>
	</linearGradient>
	<rect id="XMLID_140_" x="828.9" y="-613.5" class="st7" width="240.9" height="240.9"/>
	<linearGradient id="XMLID_15_" gradientUnits="userSpaceOnUse" x1="949.3609" y1="-602.6959" x2="949.3609" y2="-383.2831">
		<stop  offset="0" style="stop-color:#081B29"/>
		<stop  offset="0.1382" style="stop-color:#1E3240"/>
		<stop  offset="0.4413" style="stop-color:#47677A"/>
		<stop  offset="0.6962" style="stop-color:#6799B2"/>
		<stop  offset="0.8901" style="stop-color:#7DBDDC"/>
		<stop  offset="1" style="stop-color:#86CFF3"/>
	</linearGradient>
	<rect id="XMLID_133_" x="838.3" y="-602.7" class="st8" width="222.1" height="219.4"/>
	<linearGradient id="XMLID_16_" gradientUnits="userSpaceOnUse" x1="949.3609" y1="-390.98" x2="949.3609" y2="-594.9989">
		<stop  offset="0" style="stop-color:#081B29"/>
		<stop  offset="0.1382" style="stop-color:#1E3240"/>
		<stop  offset="0.4413" style="stop-color:#47677A"/>
		<stop  offset="0.6962" style="stop-color:#6799B2"/>
		<stop  offset="0.8901" style="stop-color:#7DBDDC"/>
		<stop  offset="1" style="stop-color:#86CFF3"/>
	</linearGradient>
	<rect id="XMLID_132_" x="847.4" y="-595" class="st9" width="204" height="204"/>
</g>
<g id="XMLID_150_" class="st3">
	<linearGradient id="XMLID_18_" gradientUnits="userSpaceOnUse" x1="1253.3828" y1="-361.7582" x2="1253.3828" y2="-602.6959">
		<stop  offset="0" style="stop-color:#081B29"/>
		<stop  offset="0.1382" style="stop-color:#1E3240"/>
		<stop  offset="0.4413" style="stop-color:#47677A"/>
		<stop  offset="0.6962" style="stop-color:#6799B2"/>
		<stop  offset="0.8901" style="stop-color:#7DBDDC"/>
		<stop  offset="1" style="stop-color:#86CFF3"/>
	</linearGradient>
	<circle id="XMLID_149_" class="st10" cx="1253.4" cy="-482.2" r="120.5"/>
	<linearGradient id="XMLID_19_" gradientUnits="userSpaceOnUse" x1="1253.3828" y1="-590.019" x2="1253.3828" y2="-374.4351">
		<stop  offset="0" style="stop-color:#081B29"/>
		<stop  offset="0.1382" style="stop-color:#1E3240"/>
		<stop  offset="0.4413" style="stop-color:#47677A"/>
		<stop  offset="0.6962" style="stop-color:#6799B2"/>
		<stop  offset="0.8901" style="stop-color:#7DBDDC"/>
		<stop  offset="1" style="stop-color:#86CFF3"/>
	</linearGradient>
	<circle id="XMLID_131_" class="st11" cx="1253.4" cy="-482.2" r="107.8"/>
	<linearGradient id="XMLID_20_" gradientUnits="userSpaceOnUse" x1="1253.3828" y1="-386.4195" x2="1253.3828" y2="-578.0345">
		<stop  offset="0" style="stop-color:#081B29"/>
		<stop  offset="0.1382" style="stop-color:#1E3240"/>
		<stop  offset="0.4413" style="stop-color:#47677A"/>
		<stop  offset="0.6962" style="stop-color:#6799B2"/>
		<stop  offset="0.8901" style="stop-color:#7DBDDC"/>
		<stop  offset="1" style="stop-color:#86CFF3"/>
	</linearGradient>
	<circle id="XMLID_66_" class="st12" cx="1253.4" cy="-482.2" r="95.8"/>
</g>
<linearGradient id="XMLID_21_" gradientUnits="userSpaceOnUse" x1="1562.1198" y1="-361.7582" x2="1562.1198" y2="-602.6959">
	<stop  offset="0" style="stop-color:#081B29"/>
	<stop  offset="0.1382" style="stop-color:#1E3240"/>
	<stop  offset="0.4413" style="stop-color:#47677A"/>
	<stop  offset="0.6962" style="stop-color:#6799B2"/>
	<stop  offset="0.8901" style="stop-color:#7DBDDC"/>
	<stop  offset="1" style="stop-color:#86CFF3"/>
</linearGradient>
<path id="XMLID_157_" class="st13" d="M1562.1-602.7c-66.5,0-120.5,53.9-120.5,120.5s53.9,120.5,120.5,120.5
	c66.5,0,120.5-53.9,120.5-120.5S1628.7-602.7,1562.1-602.7z M1562.1-431.1c-28.2,0-51.2-22.9-51.2-51.2c0-28.2,22.9-51.2,51.2-51.2
	c28.2,0,51.2,22.9,51.2,51.2C1613.3-454,1590.4-431.1,1562.1-431.1z"/>
<linearGradient id="XMLID_22_" gradientUnits="userSpaceOnUse" x1="1562.1198" y1="-590.019" x2="1562.1198" y2="-374.4351">
	<stop  offset="0" style="stop-color:#081B29"/>
	<stop  offset="0.1382" style="stop-color:#1E3240"/>
	<stop  offset="0.4413" style="stop-color:#47677A"/>
	<stop  offset="0.6962" style="stop-color:#6799B2"/>
	<stop  offset="0.8901" style="stop-color:#7DBDDC"/>
	<stop  offset="1" style="stop-color:#86CFF3"/>
</linearGradient>
<path id="XMLID_154_" class="st14" d="M1562.1-590c-59.5,0-107.8,48.3-107.8,107.8c0,59.5,48.3,107.8,107.8,107.8
	c59.5,0,107.8-48.3,107.8-107.8C1669.9-541.8,1621.7-590,1562.1-590z M1562.1-431.1c-28.2,0-51.2-22.9-51.2-51.2
	s22.9-51.2,51.2-51.2c28.2,0,51.2,22.9,51.2,51.2S1590.4-431.1,1562.1-431.1z"/>
<linearGradient id="XMLID_24_" gradientUnits="userSpaceOnUse" x1="1562.1198" y1="-386.4196" x2="1562.1198" y2="-578.0345">
	<stop  offset="0" style="stop-color:#081B29"/>
	<stop  offset="0.1382" style="stop-color:#1E3240"/>
	<stop  offset="0.4413" style="stop-color:#47677A"/>
	<stop  offset="0.6962" style="stop-color:#6799B2"/>
	<stop  offset="0.8901" style="stop-color:#7DBDDC"/>
	<stop  offset="1" style="stop-color:#86CFF3"/>
</linearGradient>
<path id="XMLID_151_" class="st15" d="M1562.1-578c-52.9,0-95.8,42.9-95.8,95.8s42.9,95.8,95.8,95.8c52.9,0,95.8-42.9,95.8-95.8
	S1615-578,1562.1-578z M1562.1-431.1c-28.2,0-51.2-22.9-51.2-51.2c0-28.2,22.9-51.2,51.2-51.2c28.2,0,51.2,22.9,51.2,51.2
	C1613.3-454,1590.4-431.1,1562.1-431.1z"/>
<linearGradient id="XMLID_25_" gradientUnits="userSpaceOnUse" x1="601.4056" y1="-665.0715" x2="601.4056" y2="-840.086">
	<stop  offset="0" style="stop-color:#081B29"/>
	<stop  offset="0.1382" style="stop-color:#1E3240"/>
	<stop  offset="0.4413" style="stop-color:#47677A"/>
	<stop  offset="0.6962" style="stop-color:#6799B2"/>
	<stop  offset="0.8901" style="stop-color:#7DBDDC"/>
	<stop  offset="1" style="stop-color:#86CFF3"/>
</linearGradient>
<path id="XMLID_184_" class="st16" d="M513.9-840.1v175h175v-175H513.9z M601.4-715.4c-20.5,0-37.2-16.6-37.2-37.2
	c0-20.5,16.6-37.2,37.2-37.2s37.2,16.6,37.2,37.2C638.6-732.1,621.9-715.4,601.4-715.4z"/>
<linearGradient id="XMLID_26_" gradientUnits="userSpaceOnUse" x1="601.4056" y1="-832.2682" x2="601.4056" y2="-672.8893">
	<stop  offset="0" style="stop-color:#081B29"/>
	<stop  offset="0.1382" style="stop-color:#1E3240"/>
	<stop  offset="0.4413" style="stop-color:#47677A"/>
	<stop  offset="0.6962" style="stop-color:#6799B2"/>
	<stop  offset="0.8901" style="stop-color:#7DBDDC"/>
	<stop  offset="1" style="stop-color:#86CFF3"/>
</linearGradient>
<path id="XMLID_181_" class="st17" d="M520.8-832.3v159.4h161.3v-159.4H520.8z M601.4-715.4c-20.5,0-37.2-16.6-37.2-37.2
	c0-20.5,16.6-37.2,37.2-37.2c20.5,0,37.2,16.6,37.2,37.2C638.6-732.1,621.9-715.4,601.4-715.4z"/>
<linearGradient id="XMLID_27_" gradientUnits="userSpaceOnUse" x1="601.4056" y1="-678.4803" x2="601.4056" y2="-826.6772">
	<stop  offset="0" style="stop-color:#081B29"/>
	<stop  offset="0.1382" style="stop-color:#1E3240"/>
	<stop  offset="0.4413" style="stop-color:#47677A"/>
	<stop  offset="0.6962" style="stop-color:#6799B2"/>
	<stop  offset="0.8901" style="stop-color:#7DBDDC"/>
	<stop  offset="1" style="stop-color:#86CFF3"/>
</linearGradient>
<path id="XMLID_178_" class="st18" d="M527.3-826.7v148.2h148.2v-148.2H527.3z M601.4-715.4c-20.5,0-37.2-16.6-37.2-37.2
	s16.6-37.2,37.2-37.2c20.5,0,37.2,16.6,37.2,37.2S621.9-715.4,601.4-715.4z"/>
<g id="XMLID_173_" class="st3">
	<linearGradient id="XMLID_28_" gradientUnits="userSpaceOnUse" x1="830.6058" y1="-665.0715" x2="830.6058" y2="-840.086">
		<stop  offset="0" style="stop-color:#081B29"/>
		<stop  offset="0.1382" style="stop-color:#1E3240"/>
		<stop  offset="0.4413" style="stop-color:#47677A"/>
		<stop  offset="0.6962" style="stop-color:#6799B2"/>
		<stop  offset="0.8901" style="stop-color:#7DBDDC"/>
		<stop  offset="1" style="stop-color:#86CFF3"/>
	</linearGradient>
	<rect id="XMLID_177_" x="743.1" y="-840.1" class="st19" width="175" height="175"/>
	<linearGradient id="XMLID_34_" gradientUnits="userSpaceOnUse" x1="830.6058" y1="-832.2682" x2="830.6058" y2="-672.8893">
		<stop  offset="0" style="stop-color:#081B29"/>
		<stop  offset="0.1382" style="stop-color:#1E3240"/>
		<stop  offset="0.4413" style="stop-color:#47677A"/>
		<stop  offset="0.6962" style="stop-color:#6799B2"/>
		<stop  offset="0.8901" style="stop-color:#7DBDDC"/>
		<stop  offset="1" style="stop-color:#86CFF3"/>
	</linearGradient>
	<rect id="XMLID_176_" x="750" y="-832.3" class="st20" width="161.3" height="159.4"/>
	<linearGradient id="XMLID_35_" gradientUnits="userSpaceOnUse" x1="830.6058" y1="-678.4803" x2="830.6058" y2="-826.6772">
		<stop  offset="0" style="stop-color:#081B29"/>
		<stop  offset="0.1382" style="stop-color:#1E3240"/>
		<stop  offset="0.4413" style="stop-color:#47677A"/>
		<stop  offset="0.6962" style="stop-color:#6799B2"/>
		<stop  offset="0.8901" style="stop-color:#7DBDDC"/>
		<stop  offset="1" style="stop-color:#86CFF3"/>
	</linearGradient>
	<rect id="XMLID_174_" x="756.5" y="-826.7" class="st21" width="148.2" height="148.2"/>
</g>
<g id="XMLID_169_" class="st3">
	<linearGradient id="XMLID_36_" gradientUnits="userSpaceOnUse" x1="1051.4437" y1="-657.2539" x2="1051.4437" y2="-832.2682">
		<stop  offset="0" style="stop-color:#081B29"/>
		<stop  offset="0.1382" style="stop-color:#1E3240"/>
		<stop  offset="0.4413" style="stop-color:#47677A"/>
		<stop  offset="0.6962" style="stop-color:#6799B2"/>
		<stop  offset="0.8901" style="stop-color:#7DBDDC"/>
		<stop  offset="1" style="stop-color:#86CFF3"/>
	</linearGradient>
	<circle id="XMLID_172_" class="st22" cx="1051.4" cy="-744.8" r="87.5"/>
	<linearGradient id="XMLID_37_" gradientUnits="userSpaceOnUse" x1="1051.4437" y1="-823.0598" x2="1051.4437" y2="-666.4623">
		<stop  offset="0" style="stop-color:#081B29"/>
		<stop  offset="0.1382" style="stop-color:#1E3240"/>
		<stop  offset="0.4413" style="stop-color:#47677A"/>
		<stop  offset="0.6962" style="stop-color:#6799B2"/>
		<stop  offset="0.8901" style="stop-color:#7DBDDC"/>
		<stop  offset="1" style="stop-color:#86CFF3"/>
	</linearGradient>
	<circle id="XMLID_171_" class="st23" cx="1051.4" cy="-744.8" r="78.3"/>
	<linearGradient id="XMLID_38_" gradientUnits="userSpaceOnUse" x1="1051.4437" y1="-675.1677" x2="1051.4437" y2="-814.3545">
		<stop  offset="0" style="stop-color:#081B29"/>
		<stop  offset="0.1382" style="stop-color:#1E3240"/>
		<stop  offset="0.4413" style="stop-color:#47677A"/>
		<stop  offset="0.6962" style="stop-color:#6799B2"/>
		<stop  offset="0.8901" style="stop-color:#7DBDDC"/>
		<stop  offset="1" style="stop-color:#86CFF3"/>
	</linearGradient>
	<circle id="XMLID_170_" class="st24" cx="1051.4" cy="-744.8" r="69.6"/>
</g>
<linearGradient id="XMLID_39_" gradientUnits="userSpaceOnUse" x1="1275.7065" y1="-657.2539" x2="1275.7065" y2="-832.2682">
	<stop  offset="0" style="stop-color:#081B29"/>
	<stop  offset="0.1382" style="stop-color:#1E3240"/>
	<stop  offset="0.4413" style="stop-color:#47677A"/>
	<stop  offset="0.6962" style="stop-color:#6799B2"/>
	<stop  offset="0.8901" style="stop-color:#7DBDDC"/>
	<stop  offset="1" style="stop-color:#86CFF3"/>
</linearGradient>
<path id="XMLID_166_" class="st25" d="M1275.7-832.3c-48.3,0-87.5,39.2-87.5,87.5s39.2,87.5,87.5,87.5c48.3,0,87.5-39.2,87.5-87.5
	S1324-832.3,1275.7-832.3z M1275.7-707.6c-20.5,0-37.2-16.6-37.2-37.2s16.6-37.2,37.2-37.2c20.5,0,37.2,16.6,37.2,37.2
	S1296.2-707.6,1275.7-707.6z"/>
<linearGradient id="XMLID_40_" gradientUnits="userSpaceOnUse" x1="1275.7065" y1="-823.0598" x2="1275.7065" y2="-666.4623">
	<stop  offset="0" style="stop-color:#081B29"/>
	<stop  offset="0.1382" style="stop-color:#1E3240"/>
	<stop  offset="0.4413" style="stop-color:#47677A"/>
	<stop  offset="0.6962" style="stop-color:#6799B2"/>
	<stop  offset="0.8901" style="stop-color:#7DBDDC"/>
	<stop  offset="1" style="stop-color:#86CFF3"/>
</linearGradient>
<path id="XMLID_163_" class="st26" d="M1275.7-823.1c-43.2,0-78.3,35.1-78.3,78.3c0,43.2,35.1,78.3,78.3,78.3
	c43.2,0,78.3-35.1,78.3-78.3C1354-788,1318.9-823.1,1275.7-823.1z M1275.7-707.6c-20.5,0-37.2-16.6-37.2-37.2s16.6-37.2,37.2-37.2
	c20.5,0,37.2,16.6,37.2,37.2S1296.2-707.6,1275.7-707.6z"/>
<linearGradient id="XMLID_41_" gradientUnits="userSpaceOnUse" x1="1275.7065" y1="-675.1677" x2="1275.7065" y2="-814.3545">
	<stop  offset="0" style="stop-color:#081B29"/>
	<stop  offset="0.1382" style="stop-color:#1E3240"/>
	<stop  offset="0.4413" style="stop-color:#47677A"/>
	<stop  offset="0.6962" style="stop-color:#6799B2"/>
	<stop  offset="0.8901" style="stop-color:#7DBDDC"/>
	<stop  offset="1" style="stop-color:#86CFF3"/>
</linearGradient>
<path id="XMLID_160_" class="st27" d="M1275.7-814.4c-38.4,0-69.6,31.2-69.6,69.6s31.2,69.6,69.6,69.6c38.4,0,69.6-31.2,69.6-69.6
	S1314.1-814.4,1275.7-814.4z M1275.7-707.6c-20.5,0-37.2-16.6-37.2-37.2c0-20.5,16.6-37.2,37.2-37.2c20.5,0,37.2,16.6,37.2,37.2
	C1312.9-724.2,1296.2-707.6,1275.7-707.6z"/>
<linearGradient id="XMLID_42_" gradientUnits="userSpaceOnUse" x1="721.8746" y1="270.2474" x2="721.8746" y2="29.3094">
	<stop  offset="0" style="stop-color:#5C1313"/>
	<stop  offset="1" style="stop-color:#EF3D48"/>
</linearGradient>
<path id="XMLID_236_" class="st28" d="M601.4,29.3v240.9h240.9V29.3H601.4z M721.9,200.9c-28.2,0-51.2-22.9-51.2-51.2
	s22.9-51.2,51.2-51.2s51.2,22.9,51.2,51.2S750.1,200.9,721.9,200.9z"/>
<linearGradient id="XMLID_43_" gradientUnits="userSpaceOnUse" x1="721.8746" y1="40.072" x2="721.8746" y2="259.4848">
	<stop  offset="0" style="stop-color:#5C1313"/>
	<stop  offset="1" style="stop-color:#EF3D48"/>
</linearGradient>
<path id="XMLID_233_" class="st29" d="M610.8,40.1v219.4h222.1V40.1H610.8z M721.9,200.9c-28.2,0-51.2-22.9-51.2-51.2
	c0-28.2,22.9-51.2,51.2-51.2s51.2,22.9,51.2,51.2C773,178,750.1,200.9,721.9,200.9z"/>
<linearGradient id="XMLID_44_" gradientUnits="userSpaceOnUse" x1="721.8746" y1="251.7878" x2="721.8746" y2="47.769">
	<stop  offset="0" style="stop-color:#5C1313"/>
	<stop  offset="1" style="stop-color:#EF3D48"/>
</linearGradient>
<path id="XMLID_230_" class="st30" d="M619.9,47.8v204h204v-204H619.9z M721.9,200.9c-28.2,0-51.2-22.9-51.2-51.2
	s22.9-51.2,51.2-51.2s51.2,22.9,51.2,51.2S750.1,200.9,721.9,200.9z"/>
<g id="XMLID_226_">
	<linearGradient id="XMLID_45_" gradientUnits="userSpaceOnUse" x1="122.469" y1="242.938" x2="122.469" y2="2">
		<stop  offset="0" style="stop-color:#5C1313"/>
		<stop  offset="1" style="stop-color:#EF3D48"/>
	</linearGradient>
	<rect id="XMLID_229_" x="2" y="2" class="st31" width="240.9" height="240.9"/>
	<linearGradient id="XMLID_46_" gradientUnits="userSpaceOnUse" x1="122.469" y1="12.7626" x2="122.469" y2="232.1754">
		<stop  offset="0" style="stop-color:#5C1313"/>
		<stop  offset="1" style="stop-color:#EF3D48"/>
	</linearGradient>
	<rect id="XMLID_228_" x="11.4" y="12.8" class="st32" width="222.1" height="219.4"/>
	<linearGradient id="XMLID_47_" gradientUnits="userSpaceOnUse" x1="122.469" y1="224.4784" x2="122.469" y2="20.4596">
		<stop  offset="0" style="stop-color:#5C1313"/>
		<stop  offset="1" style="stop-color:#EF3D48"/>
	</linearGradient>
	<rect id="XMLID_227_" x="20.5" y="20.5" class="st33" width="204" height="204"/>
</g>
<g id="XMLID_222_" class="st3">
	<linearGradient id="XMLID_48_" gradientUnits="userSpaceOnUse" x1="1364.803" y1="299.4692" x2="1364.803" y2="58.5316">
		<stop  offset="0" style="stop-color:#5C1313"/>
		<stop  offset="1" style="stop-color:#EF3D48"/>
	</linearGradient>
	<circle id="XMLID_225_" class="st34" cx="1364.8" cy="179" r="120.5"/>
	<linearGradient id="XMLID_49_" gradientUnits="userSpaceOnUse" x1="1364.803" y1="71.2085" x2="1364.803" y2="286.7923">
		<stop  offset="0" style="stop-color:#5C1313"/>
		<stop  offset="1" style="stop-color:#EF3D48"/>
	</linearGradient>
	<circle id="XMLID_224_" class="st35" cx="1364.8" cy="179" r="107.8"/>
	<linearGradient id="XMLID_50_" gradientUnits="userSpaceOnUse" x1="1364.803" y1="274.8079" x2="1364.803" y2="83.1929">
		<stop  offset="0" style="stop-color:#5C1313"/>
		<stop  offset="1" style="stop-color:#EF3D48"/>
	</linearGradient>
	<circle id="XMLID_223_" class="st36" cx="1364.8" cy="179" r="95.8"/>
</g>
<linearGradient id="XMLID_51_" gradientUnits="userSpaceOnUse" x1="1673.5399" y1="299.4692" x2="1673.5399" y2="58.5316">
	<stop  offset="0" style="stop-color:#5C1313"/>
	<stop  offset="1" style="stop-color:#EF3D48"/>
</linearGradient>
<path id="XMLID_219_" class="st37" d="M1673.5,58.5c-66.5,0-120.5,53.9-120.5,120.5c0,66.5,53.9,120.5,120.5,120.5
	c66.5,0,120.5-53.9,120.5-120.5C1794,112.5,1740.1,58.5,1673.5,58.5z M1673.5,230.2c-28.2,0-51.2-22.9-51.2-51.2
	c0-28.2,22.9-51.2,51.2-51.2c28.2,0,51.2,22.9,51.2,51.2C1724.7,207.2,1701.8,230.2,1673.5,230.2z"/>
<linearGradient id="XMLID_52_" gradientUnits="userSpaceOnUse" x1="1673.5399" y1="71.2085" x2="1673.5399" y2="286.7923">
	<stop  offset="0" style="stop-color:#5C1313"/>
	<stop  offset="1" style="stop-color:#EF3D48"/>
</linearGradient>
<path id="XMLID_216_" class="st38" d="M1673.5,71.2c-59.5,0-107.8,48.3-107.8,107.8s48.3,107.8,107.8,107.8s107.8-48.3,107.8-107.8
	S1733.1,71.2,1673.5,71.2z M1673.5,230.2c-28.2,0-51.2-22.9-51.2-51.2s22.9-51.2,51.2-51.2c28.2,0,51.2,22.9,51.2,51.2
	S1701.8,230.2,1673.5,230.2z"/>
<linearGradient id="XMLID_53_" gradientUnits="userSpaceOnUse" x1="1673.5399" y1="274.8079" x2="1673.5399" y2="83.1929">
	<stop  offset="0" style="stop-color:#5C1313"/>
	<stop  offset="1" style="stop-color:#EF3D48"/>
</linearGradient>
<path id="XMLID_213_" class="st39" d="M1673.5,83.2c-52.9,0-95.8,42.9-95.8,95.8s42.9,95.8,95.8,95.8c52.9,0,95.8-42.9,95.8-95.8
	S1726.5,83.2,1673.5,83.2z M1673.5,230.2c-28.2,0-51.2-22.9-51.2-51.2c0-28.2,22.9-51.2,51.2-51.2c28.2,0,51.2,22.9,51.2,51.2
	C1724.7,207.2,1701.8,230.2,1673.5,230.2z"/>
<linearGradient id="XMLID_54_" gradientUnits="userSpaceOnUse" x1="616.0479" y1="-135.815" x2="616.0479" y2="-310.8294">
	<stop  offset="0" style="stop-color:#5C1313"/>
	<stop  offset="1" style="stop-color:#EF3D48"/>
</linearGradient>
<path id="XMLID_210_" class="st40" d="M528.5-310.8v175h175v-175H528.5z M616-186.2c-20.5,0-37.2-16.6-37.2-37.2
	s16.6-37.2,37.2-37.2c20.5,0,37.2,16.6,37.2,37.2S636.6-186.2,616-186.2z"/>
<linearGradient id="XMLID_55_" gradientUnits="userSpaceOnUse" x1="616.0479" y1="-303.0116" x2="616.0479" y2="-143.6328">
	<stop  offset="0" style="stop-color:#5C1313"/>
	<stop  offset="1" style="stop-color:#EF3D48"/>
</linearGradient>
<path id="XMLID_207_" class="st41" d="M535.4-303v159.4h161.3V-303H535.4z M616-186.2c-20.5,0-37.2-16.6-37.2-37.2
	c0-20.5,16.6-37.2,37.2-37.2c20.5,0,37.2,16.6,37.2,37.2C653.2-202.8,636.6-186.2,616-186.2z"/>
<linearGradient id="XMLID_56_" gradientUnits="userSpaceOnUse" x1="616.0479" y1="-149.2238" x2="616.0479" y2="-297.4206">
	<stop  offset="0" style="stop-color:#5C1313"/>
	<stop  offset="1" style="stop-color:#EF3D48"/>
</linearGradient>
<path id="XMLID_204_" class="st42" d="M541.9-297.4v148.2h148.2v-148.2H541.9z M616-186.2c-20.5,0-37.2-16.6-37.2-37.2
	s16.6-37.2,37.2-37.2c20.5,0,37.2,16.6,37.2,37.2S636.6-186.2,616-186.2z"/>
<g id="XMLID_200_" class="st3">
	<linearGradient id="XMLID_57_" gradientUnits="userSpaceOnUse" x1="845.2482" y1="-135.815" x2="845.2482" y2="-310.8294">
		<stop  offset="0" style="stop-color:#5C1313"/>
		<stop  offset="1" style="stop-color:#EF3D48"/>
	</linearGradient>
	<rect id="XMLID_203_" x="757.7" y="-310.8" class="st43" width="175" height="175"/>
	<linearGradient id="XMLID_58_" gradientUnits="userSpaceOnUse" x1="845.2481" y1="-303.0116" x2="845.2481" y2="-143.6328">
		<stop  offset="0" style="stop-color:#5C1313"/>
		<stop  offset="1" style="stop-color:#EF3D48"/>
	</linearGradient>
	<rect id="XMLID_202_" x="764.6" y="-303" class="st44" width="161.3" height="159.4"/>
	<linearGradient id="XMLID_59_" gradientUnits="userSpaceOnUse" x1="845.2481" y1="-149.2238" x2="845.2481" y2="-297.4206">
		<stop  offset="0" style="stop-color:#5C1313"/>
		<stop  offset="1" style="stop-color:#EF3D48"/>
	</linearGradient>
	<rect id="XMLID_201_" x="771.1" y="-297.4" class="st45" width="148.2" height="148.2"/>
</g>
<g id="XMLID_196_" class="st3">
	<linearGradient id="XMLID_60_" gradientUnits="userSpaceOnUse" x1="1066.0859" y1="-127.9974" x2="1066.0859" y2="-303.0116">
		<stop  offset="0" style="stop-color:#5C1313"/>
		<stop  offset="1" style="stop-color:#EF3D48"/>
	</linearGradient>
	<circle id="XMLID_199_" class="st46" cx="1066.1" cy="-215.5" r="87.5"/>
	<linearGradient id="XMLID_61_" gradientUnits="userSpaceOnUse" x1="1066.0859" y1="-293.8033" x2="1066.0859" y2="-137.2057">
		<stop  offset="0" style="stop-color:#5C1313"/>
		<stop  offset="1" style="stop-color:#EF3D48"/>
	</linearGradient>
	<circle id="XMLID_198_" class="st47" cx="1066.1" cy="-215.5" r="78.3"/>
	<linearGradient id="XMLID_62_" gradientUnits="userSpaceOnUse" x1="1066.0859" y1="-145.9111" x2="1066.0859" y2="-285.0979">
		<stop  offset="0" style="stop-color:#5C1313"/>
		<stop  offset="1" style="stop-color:#EF3D48"/>
	</linearGradient>
	<circle id="XMLID_197_" class="st48" cx="1066.1" cy="-215.5" r="69.6"/>
</g>
<linearGradient id="XMLID_63_" gradientUnits="userSpaceOnUse" x1="1290.3488" y1="-127.9974" x2="1290.3488" y2="-303.0116">
	<stop  offset="0" style="stop-color:#5C1313"/>
	<stop  offset="1" style="stop-color:#EF3D48"/>
</linearGradient>
<path id="XMLID_193_" class="st49" d="M1290.3-303c-48.3,0-87.5,39.2-87.5,87.5s39.2,87.5,87.5,87.5s87.5-39.2,87.5-87.5
	S1338.7-303,1290.3-303z M1290.3-178.3c-20.5,0-37.2-16.6-37.2-37.2c0-20.5,16.6-37.2,37.2-37.2c20.5,0,37.2,16.6,37.2,37.2
	C1327.5-195,1310.9-178.3,1290.3-178.3z"/>
<linearGradient id="XMLID_64_" gradientUnits="userSpaceOnUse" x1="1290.3488" y1="-293.8033" x2="1290.3488" y2="-137.2057">
	<stop  offset="0" style="stop-color:#5C1313"/>
	<stop  offset="1" style="stop-color:#EF3D48"/>
</linearGradient>
<path id="XMLID_190_" class="st50" d="M1290.3-293.8c-43.2,0-78.3,35.1-78.3,78.3s35.1,78.3,78.3,78.3s78.3-35.1,78.3-78.3
	S1333.6-293.8,1290.3-293.8z M1290.3-178.3c-20.5,0-37.2-16.6-37.2-37.2s16.6-37.2,37.2-37.2c20.5,0,37.2,16.6,37.2,37.2
	S1310.9-178.3,1290.3-178.3z"/>
<linearGradient id="XMLID_65_" gradientUnits="userSpaceOnUse" x1="1290.3488" y1="-145.9111" x2="1290.3488" y2="-285.0979">
	<stop  offset="0" style="stop-color:#5C1313"/>
	<stop  offset="1" style="stop-color:#EF3D48"/>
</linearGradient>
<path id="XMLID_187_" class="st51" d="M1290.3-285.1c-38.4,0-69.6,31.2-69.6,69.6s31.2,69.6,69.6,69.6c38.4,0,69.6-31.2,69.6-69.6
	S1328.8-285.1,1290.3-285.1z M1290.3-178.3c-20.5,0-37.2-16.6-37.2-37.2c0-20.5,16.6-37.2,37.2-37.2s37.2,16.6,37.2,37.2
	C1327.5-195,1310.9-178.3,1290.3-178.3z"/>
</svg>
